<svg width="295" height="16" viewBox="0 0 295 16" fill="none" xmlns="http://www.w3.org/2000/svg">
<path d="M287.839 12.123C287.126 12.5444 286.889 13.4642 287.31 14.1775C287.732 14.8907 288.652 15.1273 289.365 14.7059L287.839 12.123ZM288.602 13.4145C289.365 14.7059 289.366 14.7054 289.367 14.7049C289.367 14.7046 289.368 14.704 289.369 14.7034C289.371 14.7023 289.373 14.701 289.376 14.6993C289.381 14.6961 289.388 14.6918 289.397 14.6865C289.415 14.676 289.439 14.6613 289.469 14.6427C289.529 14.6055 289.614 14.5524 289.718 14.4848C289.926 14.3499 290.215 14.1554 290.549 13.9114C291.206 13.4298 292.075 12.727 292.834 11.8819C293.571 11.0615 294.337 9.96228 294.559 8.68399C294.804 7.27235 294.347 5.8727 293.072 4.71203C291.881 3.62833 289.999 2.76373 287.343 2.08642C284.658 1.40171 281.035 0.873035 276.22 0.563085C266.588 -0.0569439 252.013 0.18856 230.274 1.9197L230.512 4.91023C252.193 3.18371 266.604 2.95032 276.027 3.55689C280.74 3.86024 284.162 4.37123 286.602 4.9934C289.071 5.62297 290.395 6.33247 291.053 6.93091C291.626 7.45238 291.66 7.84294 291.603 8.17039C291.523 8.63119 291.193 9.21991 290.603 9.87726C290.034 10.5099 289.345 11.0745 288.776 11.4909C288.496 11.6959 288.255 11.8581 288.086 11.9675C288.002 12.0221 287.936 12.0633 287.894 12.0896C287.872 12.1028 287.857 12.1123 287.847 12.1179C287.843 12.1207 287.84 12.1226 287.838 12.1234C287.837 12.1239 287.837 12.124 287.837 12.124C287.837 12.1239 287.838 12.1237 287.838 12.1237C287.838 12.1234 287.839 12.123 288.602 13.4145ZM230.274 1.9197C186.887 5.37481 129.564 8.05929 83.0734 9.88017C59.8312 10.7905 39.302 11.4847 24.5835 11.9514C17.2243 12.1848 11.3178 12.3612 7.25145 12.4793C5.21826 12.5383 3.64509 12.5828 2.58033 12.6125C2.04796 12.6274 1.64269 12.6385 1.37057 12.646C1.23452 12.6497 1.13175 12.6525 1.06303 12.6543C1.02867 12.6553 1.00282 12.656 0.985572 12.6564C0.97695 12.6567 0.97048 12.6568 0.966172 12.657C0.964019 12.657 0.962414 12.6571 0.961336 12.6571C0.960273 12.6571 0.959753 12.6571 1 14.1566C1.04025 15.656 1.04081 15.656 1.04192 15.656C1.04302 15.656 1.04467 15.6559 1.04686 15.6559C1.05123 15.6558 1.05776 15.6556 1.06644 15.6553C1.08381 15.6549 1.10979 15.6542 1.14428 15.6532C1.21326 15.6514 1.31629 15.6486 1.45261 15.6448C1.72524 15.6374 2.13105 15.6262 2.66398 15.6113C3.72983 15.5816 5.30415 15.5371 7.33854 15.478C11.4073 15.3599 17.3164 15.1834 24.6785 14.9499C39.4027 14.4831 59.9396 13.7885 83.1908 12.8779C129.687 11.0568 187.061 8.37044 230.512 4.91023L230.274 1.9197Z" fill="#A5A6F6"/>
</svg>
